<?xml version="1.0" encoding="utf-8"?>
<svg version="1.1" xmlns:xlink="http://www.w3.org/1999/xlink" width="213px" height="62px" xmlns="http://www.w3.org/2000/svg">
  <g transform="matrix(1 0 0 1 -1011 -539 )">
    <path d="M 1011 586.428082191781  C 1011 586.428082191781  1011 544  1011 544  C 1011 541.238576250846  1013.23857625085 539  1016 539  C 1016 539  1219 539  1219 539  C 1221.76142374915 539  1224 541.238576250846  1224 544  C 1224 544  1224 586.428082191781  1224 586.428082191781  C 1224 589.189505940935  1221.76142374915 591.428082191781  1219 591.428082191781  C 1219 591.428082191781  1077.0375 591.428082191781  1077.0375 591.428082191781  C 1077.0375 591.428082191781  1066.32916666667 600.653253424657  1066.32916666667 600.653253424657  C 1066.32916666667 600.653253424657  1057.0375 591.428082191781  1057.0375 591.428082191781  C 1057.0375 591.428082191781  1016 591.428082191781  1016 591.428082191781  C 1013.23857625085 591.428082191781  1011 589.189505940935  1011 586.428082191781  Z " fill-rule="nonzero" fill="#000000" stroke="none" fill-opacity="0.8" />
  </g>
</svg>